<mxfile host="app.diagrams.net" modified="2021-04-29T07:41:11.202Z" agent="5.0 (Windows NT 10.0; Win64; x64) AppleWebKit/537.36 (KHTML, like Gecko) Chrome/84.0.4147.89 Safari/537.36" etag="Zm3xcOHrzl_UJVOIkdeS" version="14.6.6" type="github">
  <diagram id="B07wheG9p8wFPYijwlfB" name="Page-1">
    <mxGraphModel dx="700" dy="752" grid="1" gridSize="10" guides="1" tooltips="1" connect="1" arrows="1" fold="1" page="1" pageScale="1" pageWidth="850" pageHeight="1100" math="0" shadow="0">
      <root>
        <mxCell id="0" />
        <mxCell id="1" parent="0" />
        <mxCell id="zC0yHgCYKoBpnV_a2Rs2-38" style="edgeStyle=none;rounded=0;orthogonalLoop=1;jettySize=auto;html=1;exitX=1;exitY=0.3333333333333333;exitDx=0;exitDy=0;exitPerimeter=0;entryX=0;entryY=0.5;entryDx=0;entryDy=0;" edge="1" parent="1" source="zC0yHgCYKoBpnV_a2Rs2-2" target="zC0yHgCYKoBpnV_a2Rs2-37">
          <mxGeometry relative="1" as="geometry" />
        </mxCell>
        <mxCell id="zC0yHgCYKoBpnV_a2Rs2-2" value="Sale" style="shape=umlActor;verticalLabelPosition=bottom;verticalAlign=top;html=1;outlineConnect=0;" vertex="1" parent="1">
          <mxGeometry x="160" y="120" width="30" height="60" as="geometry" />
        </mxCell>
        <mxCell id="zC0yHgCYKoBpnV_a2Rs2-27" style="edgeStyle=none;rounded=0;orthogonalLoop=1;jettySize=auto;html=1;exitX=1;exitY=0.3333333333333333;exitDx=0;exitDy=0;exitPerimeter=0;entryX=0;entryY=0.5;entryDx=0;entryDy=0;" edge="1" parent="1" source="zC0yHgCYKoBpnV_a2Rs2-51" target="zC0yHgCYKoBpnV_a2Rs2-5">
          <mxGeometry relative="1" as="geometry" />
        </mxCell>
        <mxCell id="zC0yHgCYKoBpnV_a2Rs2-34" style="edgeStyle=none;rounded=0;orthogonalLoop=1;jettySize=auto;html=1;exitX=1;exitY=0.3333333333333333;exitDx=0;exitDy=0;exitPerimeter=0;entryX=0;entryY=0.5;entryDx=0;entryDy=0;" edge="1" parent="1" source="zC0yHgCYKoBpnV_a2Rs2-3" target="zC0yHgCYKoBpnV_a2Rs2-41">
          <mxGeometry relative="1" as="geometry" />
        </mxCell>
        <mxCell id="zC0yHgCYKoBpnV_a2Rs2-50" style="edgeStyle=none;rounded=0;orthogonalLoop=1;jettySize=auto;html=1;exitX=1;exitY=0.3333333333333333;exitDx=0;exitDy=0;exitPerimeter=0;entryX=0;entryY=0.5;entryDx=0;entryDy=0;" edge="1" parent="1" source="zC0yHgCYKoBpnV_a2Rs2-3" target="zC0yHgCYKoBpnV_a2Rs2-37">
          <mxGeometry relative="1" as="geometry" />
        </mxCell>
        <mxCell id="zC0yHgCYKoBpnV_a2Rs2-3" value="Loan Admin" style="shape=umlActor;verticalLabelPosition=bottom;verticalAlign=top;html=1;outlineConnect=0;" vertex="1" parent="1">
          <mxGeometry x="160" y="320" width="30" height="60" as="geometry" />
        </mxCell>
        <mxCell id="zC0yHgCYKoBpnV_a2Rs2-4" value="Project Management Lv0" style="swimlane;" vertex="1" parent="1">
          <mxGeometry x="260" y="80" width="430" height="510" as="geometry" />
        </mxCell>
        <mxCell id="zC0yHgCYKoBpnV_a2Rs2-5" value="Create&lt;br&gt;Project" style="ellipse;whiteSpace=wrap;html=1;" vertex="1" parent="zC0yHgCYKoBpnV_a2Rs2-4">
          <mxGeometry x="40" y="370" width="120" height="60" as="geometry" />
        </mxCell>
        <mxCell id="zC0yHgCYKoBpnV_a2Rs2-19" value="&amp;lt;extend&amp;gt;" style="edgeStyle=none;rounded=0;orthogonalLoop=1;jettySize=auto;html=1;exitX=0;exitY=0.5;exitDx=0;exitDy=0;entryX=1;entryY=0.5;entryDx=0;entryDy=0;dashed=1;" edge="1" parent="zC0yHgCYKoBpnV_a2Rs2-4" source="zC0yHgCYKoBpnV_a2Rs2-6" target="zC0yHgCYKoBpnV_a2Rs2-5">
          <mxGeometry relative="1" as="geometry" />
        </mxCell>
        <mxCell id="zC0yHgCYKoBpnV_a2Rs2-36" value="&amp;lt;include&amp;gt;" style="edgeStyle=none;rounded=0;orthogonalLoop=1;jettySize=auto;html=1;exitX=0.5;exitY=1;exitDx=0;exitDy=0;entryX=0.5;entryY=0;entryDx=0;entryDy=0;dashed=1;" edge="1" parent="zC0yHgCYKoBpnV_a2Rs2-4" source="zC0yHgCYKoBpnV_a2Rs2-6" target="zC0yHgCYKoBpnV_a2Rs2-7">
          <mxGeometry relative="1" as="geometry" />
        </mxCell>
        <mxCell id="zC0yHgCYKoBpnV_a2Rs2-6" value="Create&lt;br&gt;Customer" style="ellipse;whiteSpace=wrap;html=1;" vertex="1" parent="zC0yHgCYKoBpnV_a2Rs2-4">
          <mxGeometry x="280" y="250" width="120" height="60" as="geometry" />
        </mxCell>
        <mxCell id="zC0yHgCYKoBpnV_a2Rs2-7" value="Create&lt;br&gt;Group Customer" style="ellipse;whiteSpace=wrap;html=1;" vertex="1" parent="zC0yHgCYKoBpnV_a2Rs2-4">
          <mxGeometry x="280" y="370" width="120" height="60" as="geometry" />
        </mxCell>
        <mxCell id="zC0yHgCYKoBpnV_a2Rs2-20" value="&amp;lt;extend&amp;gt;" style="edgeStyle=none;rounded=0;orthogonalLoop=1;jettySize=auto;html=1;exitX=0;exitY=0.5;exitDx=0;exitDy=0;dashed=1;entryX=1;entryY=0.5;entryDx=0;entryDy=0;" edge="1" parent="zC0yHgCYKoBpnV_a2Rs2-4" source="zC0yHgCYKoBpnV_a2Rs2-7" target="zC0yHgCYKoBpnV_a2Rs2-5">
          <mxGeometry relative="1" as="geometry">
            <mxPoint x="120" y="350" as="targetPoint" />
          </mxGeometry>
        </mxCell>
        <mxCell id="zC0yHgCYKoBpnV_a2Rs2-40" value="&amp;lt;extend&amp;gt;" style="edgeStyle=none;rounded=0;orthogonalLoop=1;jettySize=auto;html=1;exitX=0.5;exitY=0;exitDx=0;exitDy=0;entryX=0.5;entryY=1;entryDx=0;entryDy=0;dashed=1;" edge="1" parent="zC0yHgCYKoBpnV_a2Rs2-4" source="zC0yHgCYKoBpnV_a2Rs2-25" target="zC0yHgCYKoBpnV_a2Rs2-37">
          <mxGeometry relative="1" as="geometry" />
        </mxCell>
        <mxCell id="zC0yHgCYKoBpnV_a2Rs2-25" value="View&lt;br&gt;Project Detail" style="ellipse;whiteSpace=wrap;html=1;" vertex="1" parent="zC0yHgCYKoBpnV_a2Rs2-4">
          <mxGeometry x="40" y="170" width="120" height="60" as="geometry" />
        </mxCell>
        <mxCell id="zC0yHgCYKoBpnV_a2Rs2-37" value="Search&lt;br&gt;Project" style="ellipse;whiteSpace=wrap;html=1;" vertex="1" parent="zC0yHgCYKoBpnV_a2Rs2-4">
          <mxGeometry x="40" y="60" width="120" height="60" as="geometry" />
        </mxCell>
        <mxCell id="zC0yHgCYKoBpnV_a2Rs2-42" value="&amp;lt;include&amp;gt;" style="edgeStyle=none;rounded=0;orthogonalLoop=1;jettySize=auto;html=1;exitX=0.5;exitY=0;exitDx=0;exitDy=0;entryX=0.5;entryY=1;entryDx=0;entryDy=0;dashed=1;" edge="1" parent="zC0yHgCYKoBpnV_a2Rs2-4" source="zC0yHgCYKoBpnV_a2Rs2-41" target="zC0yHgCYKoBpnV_a2Rs2-25">
          <mxGeometry relative="1" as="geometry" />
        </mxCell>
        <mxCell id="zC0yHgCYKoBpnV_a2Rs2-101" value="&amp;lt;extend&amp;gt;" style="edgeStyle=none;rounded=0;orthogonalLoop=1;jettySize=auto;html=1;exitX=1;exitY=0;exitDx=0;exitDy=0;entryX=0.233;entryY=0.917;entryDx=0;entryDy=0;entryPerimeter=0;dashed=1;" edge="1" parent="zC0yHgCYKoBpnV_a2Rs2-4" source="zC0yHgCYKoBpnV_a2Rs2-41" target="zC0yHgCYKoBpnV_a2Rs2-99">
          <mxGeometry relative="1" as="geometry" />
        </mxCell>
        <mxCell id="zC0yHgCYKoBpnV_a2Rs2-41" value="Manage&lt;br&gt;Project Detail" style="ellipse;whiteSpace=wrap;html=1;strokeWidth=2;" vertex="1" parent="zC0yHgCYKoBpnV_a2Rs2-4">
          <mxGeometry x="40" y="280" width="120" height="60" as="geometry" />
        </mxCell>
        <mxCell id="zC0yHgCYKoBpnV_a2Rs2-100" value="&amp;lt;include&amp;gt;" style="edgeStyle=none;rounded=0;orthogonalLoop=1;jettySize=auto;html=1;exitX=1;exitY=1;exitDx=0;exitDy=0;dashed=1;entryX=0.917;entryY=0.133;entryDx=0;entryDy=0;entryPerimeter=0;" edge="1" parent="zC0yHgCYKoBpnV_a2Rs2-4" source="zC0yHgCYKoBpnV_a2Rs2-99" target="zC0yHgCYKoBpnV_a2Rs2-5">
          <mxGeometry relative="1" as="geometry" />
        </mxCell>
        <mxCell id="zC0yHgCYKoBpnV_a2Rs2-99" value="Assign&lt;br&gt;Officer" style="ellipse;whiteSpace=wrap;html=1;" vertex="1" parent="zC0yHgCYKoBpnV_a2Rs2-4">
          <mxGeometry x="190" y="150" width="120" height="60" as="geometry" />
        </mxCell>
        <mxCell id="zC0yHgCYKoBpnV_a2Rs2-48" value="Manage Project Detail" style="swimlane;strokeWidth=1;" vertex="1" parent="1">
          <mxGeometry x="960" y="80" width="430" height="600" as="geometry" />
        </mxCell>
        <mxCell id="zC0yHgCYKoBpnV_a2Rs2-46" value="Add&lt;br&gt;Accrued Expense" style="ellipse;whiteSpace=wrap;html=1;" vertex="1" parent="zC0yHgCYKoBpnV_a2Rs2-48">
          <mxGeometry x="50" y="330" width="120" height="60" as="geometry" />
        </mxCell>
        <mxCell id="zC0yHgCYKoBpnV_a2Rs2-47" value="Add&lt;br&gt;Payment" style="ellipse;whiteSpace=wrap;html=1;" vertex="1" parent="zC0yHgCYKoBpnV_a2Rs2-48">
          <mxGeometry x="50" y="470" width="120" height="60" as="geometry" />
        </mxCell>
        <mxCell id="zC0yHgCYKoBpnV_a2Rs2-43" value="Add&lt;br&gt;Facility" style="ellipse;whiteSpace=wrap;html=1;" vertex="1" parent="zC0yHgCYKoBpnV_a2Rs2-48">
          <mxGeometry x="50" y="120" width="120" height="60" as="geometry" />
        </mxCell>
        <mxCell id="zC0yHgCYKoBpnV_a2Rs2-44" value="Add&lt;br&gt;Condition" style="ellipse;whiteSpace=wrap;html=1;" vertex="1" parent="zC0yHgCYKoBpnV_a2Rs2-48">
          <mxGeometry x="50" y="190" width="120" height="60" as="geometry" />
        </mxCell>
        <mxCell id="zC0yHgCYKoBpnV_a2Rs2-45" value="Add&lt;br&gt;Collateral" style="ellipse;whiteSpace=wrap;html=1;" vertex="1" parent="zC0yHgCYKoBpnV_a2Rs2-48">
          <mxGeometry x="50" y="260" width="120" height="60" as="geometry" />
        </mxCell>
        <mxCell id="zC0yHgCYKoBpnV_a2Rs2-56" value="Edit&lt;br&gt;Project Info" style="ellipse;whiteSpace=wrap;html=1;" vertex="1" parent="zC0yHgCYKoBpnV_a2Rs2-48">
          <mxGeometry x="50" y="50" width="120" height="60" as="geometry" />
        </mxCell>
        <mxCell id="zC0yHgCYKoBpnV_a2Rs2-89" value="&amp;lt;include&amp;gt;" style="edgeStyle=none;rounded=0;orthogonalLoop=1;jettySize=auto;html=1;exitX=0;exitY=0.5;exitDx=0;exitDy=0;entryX=1;entryY=0.617;entryDx=0;entryDy=0;entryPerimeter=0;dashed=1;" edge="1" parent="zC0yHgCYKoBpnV_a2Rs2-48" source="zC0yHgCYKoBpnV_a2Rs2-81" target="zC0yHgCYKoBpnV_a2Rs2-56">
          <mxGeometry relative="1" as="geometry" />
        </mxCell>
        <mxCell id="zC0yHgCYKoBpnV_a2Rs2-90" value="&amp;lt;include&amp;gt;" style="edgeStyle=none;rounded=0;orthogonalLoop=1;jettySize=auto;html=1;exitX=0;exitY=0.5;exitDx=0;exitDy=0;entryX=1;entryY=0.5;entryDx=0;entryDy=0;dashed=1;" edge="1" parent="zC0yHgCYKoBpnV_a2Rs2-48" source="zC0yHgCYKoBpnV_a2Rs2-81" target="zC0yHgCYKoBpnV_a2Rs2-43">
          <mxGeometry relative="1" as="geometry" />
        </mxCell>
        <mxCell id="zC0yHgCYKoBpnV_a2Rs2-91" value="&amp;lt;include&amp;gt;" style="edgeStyle=none;rounded=0;orthogonalLoop=1;jettySize=auto;html=1;exitX=0;exitY=0.5;exitDx=0;exitDy=0;entryX=1;entryY=0.5;entryDx=0;entryDy=0;dashed=1;" edge="1" parent="zC0yHgCYKoBpnV_a2Rs2-48" source="zC0yHgCYKoBpnV_a2Rs2-81" target="zC0yHgCYKoBpnV_a2Rs2-44">
          <mxGeometry relative="1" as="geometry" />
        </mxCell>
        <mxCell id="zC0yHgCYKoBpnV_a2Rs2-92" value="&amp;lt;include&amp;gt;" style="edgeStyle=none;rounded=0;orthogonalLoop=1;jettySize=auto;html=1;exitX=0;exitY=0.5;exitDx=0;exitDy=0;entryX=1;entryY=0.5;entryDx=0;entryDy=0;dashed=1;" edge="1" parent="zC0yHgCYKoBpnV_a2Rs2-48" source="zC0yHgCYKoBpnV_a2Rs2-81" target="zC0yHgCYKoBpnV_a2Rs2-45">
          <mxGeometry relative="1" as="geometry" />
        </mxCell>
        <mxCell id="zC0yHgCYKoBpnV_a2Rs2-81" value="Setup&lt;br&gt;Project Detail" style="ellipse;whiteSpace=wrap;html=1;" vertex="1" parent="zC0yHgCYKoBpnV_a2Rs2-48">
          <mxGeometry x="280" y="195" width="120" height="60" as="geometry" />
        </mxCell>
        <mxCell id="zC0yHgCYKoBpnV_a2Rs2-97" value="Add&lt;br&gt;Related Document" style="ellipse;whiteSpace=wrap;html=1;" vertex="1" parent="zC0yHgCYKoBpnV_a2Rs2-48">
          <mxGeometry x="50" y="400" width="120" height="60" as="geometry" />
        </mxCell>
        <mxCell id="zC0yHgCYKoBpnV_a2Rs2-68" style="edgeStyle=none;rounded=0;orthogonalLoop=1;jettySize=auto;html=1;exitX=1;exitY=0.3333333333333333;exitDx=0;exitDy=0;exitPerimeter=0;entryX=0;entryY=0.5;entryDx=0;entryDy=0;" edge="1" parent="1" source="zC0yHgCYKoBpnV_a2Rs2-49" target="zC0yHgCYKoBpnV_a2Rs2-56">
          <mxGeometry relative="1" as="geometry" />
        </mxCell>
        <mxCell id="zC0yHgCYKoBpnV_a2Rs2-69" style="edgeStyle=none;rounded=0;orthogonalLoop=1;jettySize=auto;html=1;exitX=1;exitY=0.3333333333333333;exitDx=0;exitDy=0;exitPerimeter=0;entryX=0;entryY=0.5;entryDx=0;entryDy=0;" edge="1" parent="1" source="zC0yHgCYKoBpnV_a2Rs2-49" target="zC0yHgCYKoBpnV_a2Rs2-43">
          <mxGeometry relative="1" as="geometry" />
        </mxCell>
        <mxCell id="zC0yHgCYKoBpnV_a2Rs2-70" style="edgeStyle=none;rounded=0;orthogonalLoop=1;jettySize=auto;html=1;exitX=1;exitY=0.3333333333333333;exitDx=0;exitDy=0;exitPerimeter=0;entryX=0;entryY=0.5;entryDx=0;entryDy=0;" edge="1" parent="1" source="zC0yHgCYKoBpnV_a2Rs2-49" target="zC0yHgCYKoBpnV_a2Rs2-44">
          <mxGeometry relative="1" as="geometry" />
        </mxCell>
        <mxCell id="zC0yHgCYKoBpnV_a2Rs2-71" style="edgeStyle=none;rounded=0;orthogonalLoop=1;jettySize=auto;html=1;exitX=1;exitY=0.3333333333333333;exitDx=0;exitDy=0;exitPerimeter=0;entryX=0;entryY=0.5;entryDx=0;entryDy=0;" edge="1" parent="1" source="zC0yHgCYKoBpnV_a2Rs2-49" target="zC0yHgCYKoBpnV_a2Rs2-45">
          <mxGeometry relative="1" as="geometry" />
        </mxCell>
        <mxCell id="zC0yHgCYKoBpnV_a2Rs2-77" style="edgeStyle=none;rounded=0;orthogonalLoop=1;jettySize=auto;html=1;exitX=1;exitY=0.3333333333333333;exitDx=0;exitDy=0;exitPerimeter=0;entryX=0;entryY=0.5;entryDx=0;entryDy=0;" edge="1" parent="1" source="zC0yHgCYKoBpnV_a2Rs2-49" target="zC0yHgCYKoBpnV_a2Rs2-46">
          <mxGeometry relative="1" as="geometry" />
        </mxCell>
        <mxCell id="zC0yHgCYKoBpnV_a2Rs2-78" style="edgeStyle=none;rounded=0;orthogonalLoop=1;jettySize=auto;html=1;exitX=1;exitY=0.3333333333333333;exitDx=0;exitDy=0;exitPerimeter=0;entryX=0;entryY=0.5;entryDx=0;entryDy=0;" edge="1" parent="1" source="zC0yHgCYKoBpnV_a2Rs2-49" target="zC0yHgCYKoBpnV_a2Rs2-47">
          <mxGeometry relative="1" as="geometry">
            <mxPoint x="1090" y="540" as="targetPoint" />
          </mxGeometry>
        </mxCell>
        <mxCell id="zC0yHgCYKoBpnV_a2Rs2-98" style="edgeStyle=none;rounded=0;orthogonalLoop=1;jettySize=auto;html=1;exitX=1;exitY=0.3333333333333333;exitDx=0;exitDy=0;exitPerimeter=0;entryX=0;entryY=0.5;entryDx=0;entryDy=0;" edge="1" parent="1" source="zC0yHgCYKoBpnV_a2Rs2-49" target="zC0yHgCYKoBpnV_a2Rs2-97">
          <mxGeometry relative="1" as="geometry" />
        </mxCell>
        <mxCell id="zC0yHgCYKoBpnV_a2Rs2-49" value="Loan Admin" style="shape=umlActor;verticalLabelPosition=bottom;verticalAlign=top;html=1;outlineConnect=0;" vertex="1" parent="1">
          <mxGeometry x="860" y="250" width="30" height="60" as="geometry" />
        </mxCell>
        <mxCell id="zC0yHgCYKoBpnV_a2Rs2-53" value="" style="group" vertex="1" connectable="0" parent="1">
          <mxGeometry x="160" y="500" width="30" height="60" as="geometry" />
        </mxCell>
        <mxCell id="zC0yHgCYKoBpnV_a2Rs2-51" value="System&lt;br&gt;CIAW" style="shape=umlActor;verticalLabelPosition=bottom;verticalAlign=top;html=1;outlineConnect=0;" vertex="1" parent="zC0yHgCYKoBpnV_a2Rs2-53">
          <mxGeometry width="30" height="60" as="geometry" />
        </mxCell>
        <mxCell id="zC0yHgCYKoBpnV_a2Rs2-52" value="" style="rounded=0;whiteSpace=wrap;html=1;strokeWidth=1;" vertex="1" parent="zC0yHgCYKoBpnV_a2Rs2-53">
          <mxGeometry width="30" height="15" as="geometry" />
        </mxCell>
        <mxCell id="zC0yHgCYKoBpnV_a2Rs2-55" style="edgeStyle=none;rounded=0;orthogonalLoop=1;jettySize=auto;html=1;exitX=1;exitY=0.3333333333333333;exitDx=0;exitDy=0;entryX=0;entryY=0.5;entryDx=0;entryDy=0;exitPerimeter=0;" edge="1" parent="1" source="zC0yHgCYKoBpnV_a2Rs2-51" target="zC0yHgCYKoBpnV_a2Rs2-41">
          <mxGeometry relative="1" as="geometry" />
        </mxCell>
        <mxCell id="zC0yHgCYKoBpnV_a2Rs2-65" value="" style="group" vertex="1" connectable="0" parent="1">
          <mxGeometry x="1430" y="250" width="30" height="60" as="geometry" />
        </mxCell>
        <mxCell id="zC0yHgCYKoBpnV_a2Rs2-66" value="System&lt;br&gt;CIAW" style="shape=umlActor;verticalLabelPosition=bottom;verticalAlign=top;html=1;outlineConnect=0;" vertex="1" parent="zC0yHgCYKoBpnV_a2Rs2-65">
          <mxGeometry width="30" height="60" as="geometry" />
        </mxCell>
        <mxCell id="zC0yHgCYKoBpnV_a2Rs2-67" value="" style="rounded=0;whiteSpace=wrap;html=1;strokeWidth=1;" vertex="1" parent="zC0yHgCYKoBpnV_a2Rs2-65">
          <mxGeometry width="30" height="15" as="geometry" />
        </mxCell>
        <mxCell id="zC0yHgCYKoBpnV_a2Rs2-72" value="" style="group" vertex="1" connectable="0" parent="1">
          <mxGeometry x="860" y="510" width="30" height="60" as="geometry" />
        </mxCell>
        <mxCell id="zC0yHgCYKoBpnV_a2Rs2-73" value="System&lt;br&gt;CBO&lt;br&gt;(Service Request)" style="shape=umlActor;verticalLabelPosition=bottom;verticalAlign=top;html=1;outlineConnect=0;" vertex="1" parent="zC0yHgCYKoBpnV_a2Rs2-72">
          <mxGeometry width="30" height="60" as="geometry" />
        </mxCell>
        <mxCell id="zC0yHgCYKoBpnV_a2Rs2-74" value="" style="rounded=0;whiteSpace=wrap;html=1;strokeWidth=1;" vertex="1" parent="zC0yHgCYKoBpnV_a2Rs2-72">
          <mxGeometry width="30" height="15" as="geometry" />
        </mxCell>
        <mxCell id="zC0yHgCYKoBpnV_a2Rs2-76" style="edgeStyle=none;rounded=0;orthogonalLoop=1;jettySize=auto;html=1;exitX=1;exitY=0.3333333333333333;exitDx=0;exitDy=0;exitPerimeter=0;entryX=0;entryY=0.5;entryDx=0;entryDy=0;" edge="1" parent="1" source="zC0yHgCYKoBpnV_a2Rs2-73" target="zC0yHgCYKoBpnV_a2Rs2-47">
          <mxGeometry relative="1" as="geometry" />
        </mxCell>
        <mxCell id="zC0yHgCYKoBpnV_a2Rs2-88" style="edgeStyle=none;rounded=0;orthogonalLoop=1;jettySize=auto;html=1;exitX=0;exitY=0.3333333333333333;exitDx=0;exitDy=0;exitPerimeter=0;entryX=1;entryY=0.5;entryDx=0;entryDy=0;" edge="1" parent="1" source="zC0yHgCYKoBpnV_a2Rs2-66" target="zC0yHgCYKoBpnV_a2Rs2-81">
          <mxGeometry relative="1" as="geometry" />
        </mxCell>
      </root>
    </mxGraphModel>
  </diagram>
</mxfile>
